<?xml version="1.0" encoding="UTF-8" ?>
<svg version="1.1" width="32" height="32" xmlns="http://www.w3.org/2000/svg" shape-rendering="crispEdges">
<rect x="0" y="0" width="1" height="1" fill="#FFFFFF" />
<rect x="1" y="0" width="1" height="1" fill="#FFFFFF" />
<rect x="2" y="0" width="1" height="1" fill="#FFFFFF" />
<rect x="3" y="0" width="1" height="1" fill="#FFFFFF" />
<rect x="4" y="0" width="1" height="1" fill="#FFFFFF" />
<rect x="27" y="0" width="1" height="1" fill="#FFFFFF" />
<rect x="28" y="0" width="1" height="1" fill="#FFFFFF" />
<rect x="29" y="0" width="1" height="1" fill="#FFFFFF" />
<rect x="30" y="0" width="1" height="1" fill="#FFFFFF" />
<rect x="31" y="0" width="1" height="1" fill="#FFFFFF" />
<rect x="0" y="1" width="1" height="1" fill="#FFFFFF" />
<rect x="1" y="1" width="1" height="1" fill="#FFFFFF" />
<rect x="2" y="1" width="1" height="1" fill="#FFFFFF" />
<rect x="3" y="1" width="1" height="1" fill="#FFFFFF" />
<rect x="4" y="1" width="1" height="1" fill="#FFFFFF" />
<rect x="27" y="1" width="1" height="1" fill="#FFFFFF" />
<rect x="28" y="1" width="1" height="1" fill="#FFFFFF" />
<rect x="29" y="1" width="1" height="1" fill="#FFFFFF" />
<rect x="30" y="1" width="1" height="1" fill="#FFFFFF" />
<rect x="31" y="1" width="1" height="1" fill="#FFFFFF" />
<rect x="0" y="2" width="1" height="1" fill="#FFFFFF" />
<rect x="1" y="2" width="1" height="1" fill="#FFFFFF" />
<rect x="30" y="2" width="1" height="1" fill="#FFFFFF" />
<rect x="31" y="2" width="1" height="1" fill="#FFFFFF" />
<rect x="0" y="3" width="1" height="1" fill="#FFFFFF" />
<rect x="1" y="3" width="1" height="1" fill="#FFFFFF" />
<rect x="30" y="3" width="1" height="1" fill="#FFFFFF" />
<rect x="31" y="3" width="1" height="1" fill="#FFFFFF" />
<rect x="0" y="4" width="1" height="1" fill="#FFFFFF" />
<rect x="1" y="4" width="1" height="1" fill="#FFFFFF" />
<rect x="30" y="4" width="1" height="1" fill="#FFFFFF" />
<rect x="31" y="4" width="1" height="1" fill="#FFFFFF" />
<rect x="0" y="27" width="1" height="1" fill="#FFFFFF" />
<rect x="1" y="27" width="1" height="1" fill="#FFFFFF" />
<rect x="30" y="27" width="1" height="1" fill="#FFFFFF" />
<rect x="31" y="27" width="1" height="1" fill="#FFFFFF" />
<rect x="0" y="28" width="1" height="1" fill="#FFFFFF" />
<rect x="1" y="28" width="1" height="1" fill="#FFFFFF" />
<rect x="30" y="28" width="1" height="1" fill="#FFFFFF" />
<rect x="31" y="28" width="1" height="1" fill="#FFFFFF" />
<rect x="0" y="29" width="1" height="1" fill="#FFFFFF" />
<rect x="1" y="29" width="1" height="1" fill="#FFFFFF" />
<rect x="30" y="29" width="1" height="1" fill="#FFFFFF" />
<rect x="31" y="29" width="1" height="1" fill="#FFFFFF" />
<rect x="0" y="30" width="1" height="1" fill="#FFFFFF" />
<rect x="1" y="30" width="1" height="1" fill="#FFFFFF" />
<rect x="2" y="30" width="1" height="1" fill="#FFFFFF" />
<rect x="3" y="30" width="1" height="1" fill="#FFFFFF" />
<rect x="4" y="30" width="1" height="1" fill="#FFFFFF" />
<rect x="27" y="30" width="1" height="1" fill="#FFFFFF" />
<rect x="28" y="30" width="1" height="1" fill="#FFFFFF" />
<rect x="29" y="30" width="1" height="1" fill="#FFFFFF" />
<rect x="30" y="30" width="1" height="1" fill="#FFFFFF" />
<rect x="31" y="30" width="1" height="1" fill="#FFFFFF" />
<rect x="0" y="31" width="1" height="1" fill="#FFFFFF" />
<rect x="1" y="31" width="1" height="1" fill="#FFFFFF" />
<rect x="2" y="31" width="1" height="1" fill="#FFFFFF" />
<rect x="3" y="31" width="1" height="1" fill="#FFFFFF" />
<rect x="4" y="31" width="1" height="1" fill="#FFFFFF" />
<rect x="27" y="31" width="1" height="1" fill="#FFFFFF" />
<rect x="28" y="31" width="1" height="1" fill="#FFFFFF" />
<rect x="29" y="31" width="1" height="1" fill="#FFFFFF" />
<rect x="30" y="31" width="1" height="1" fill="#FFFFFF" />
<rect x="31" y="31" width="1" height="1" fill="#FFFFFF" />
</svg>